:FULLY-SPECIFIED
:FORCE-ALL-JOINTS-BE-3DOF
:DEGREES
204
root 4.8066 15.1466 -25.4293 7.08793 0.0539712 5.64515
lfemur 7.49088 -8.8779 2.07248
ltibia 3.63418 -0 0
lfoot -32.2033 -16.7382 -0.818711
ltoes 55.9884 -0 0
rfemur -29.3215 -18.7466 -8.96875
rtibia 49.4581 -0 0
rfoot -28.0059 15.8306 0.420838
rtoes 58.8779 -0 0
lowerback -2.63705 -1.88337 -1.06286
upperback -0.672629 -2.44883 -7.56563
thorax 0.485462 -1.22791 -7.34969
lowerneck -11.3983 0.372788 5.84755
upperneck 3.66982 -0.543677 2.82968
head 3.21099 -0.0538778 -0.143981
lclavicle 4.67641e-014 -7.95139e-015 0
lhumerus -58.5828 -45.0288 115.03
lradius 54.58 -0 0
lwrist 24.8044 0 0
lhand 39.879 30.5036 -0.21192
lfingers 7.12502 -0 0
lthumb 62.4087 42.3677 -0.0307821
rclavicle 4.67641e-014 -7.95139e-015 0
rhumerus -11.6007 -6.28521 -16.9446
rradius 84.862 -0 0
rwrist -21.5565 0 0
rhand -33.9868 -47.5465 8.94015
rfingers 7.12502 -0 0
rthumb -11.0904 70.0839 -13.8116
205
root 4.78964 15.1227 -25.4464 7.14285 -0.193961 5.62703
lfemur 7.45062 -8.35121 1.92412
ltibia 4.01532 -0 0
lfoot -32.8936 -15.7937 -0.727416
ltoes 55.3452 -0 0
rfemur -29.9764 -19.1391 -8.74608
rtibia 50.0625 -0 0
rfoot -27.7856 16.3846 0.326498
rtoes 59.1368 -0 0
lowerback -2.47117 -1.85386 -1.03711
upperback -0.676253 -2.41857 -7.5313
thorax 0.39468 -1.21531 -7.31861
lowerneck -11.2759 0.475697 6.04585
upperneck 3.62206 -0.415175 2.71007
head 3.17228 0.00526743 -0.208542
lclavicle 4.67641e-014 -7.95139e-015 0
lhumerus -58.8341 -45.2159 115.306
lradius 54.6199 -0 0
lwrist 25.0649 0 0
lhand 39.5677 30.3627 -0.205818
lfingers 7.12502 -0 0
lthumb 62.1452 42.526 -0.0301646
rclavicle 4.67641e-014 -7.95139e-015 0
rhumerus -10.9349 -11.1894 -16.1404
rradius 81.8112 -0 0
rwrist -21.6654 0 0
rhand -38.7945 -50.9828 7.49278
rfingers 7.12502 -0 0
rthumb -14.9507 75.3607 -10.5005
206
root 4.77452 15.1012 -25.4636 7.20669 -0.389507 5.57896
lfemur 7.30196 -7.75103 1.82044
ltibia 4.49875 -0 0
lfoot -33.4895 -14.8529 -0.619963
ltoes 54.556 -0 0
rfemur -30.5795 -19.5049 -8.49739
rtibia 50.6025 -0 0
rfoot -27.5875 16.872 0.235162
rtoes 59.3761 -0 0
lowerback -2.30556 -1.82652 -1.0048
upperback -0.679139 -2.39083 -7.4756
thorax 0.305117 -1.20408 -7.26928
lowerneck -11.1626 0.568188 6.21815
upperneck 3.57007 -0.297198 2.59232
head 3.13385 0.0589357 -0.268596
lclavicle 4.67641e-014 -7.95139e-015 0
lhumerus -59.0584 -45.3736 115.58
lradius 54.6721 -0 0
lwrist 25.2924 0 0
lhand 39.2115 30.1956 -0.192359
lfingers 7.12502 -0 0
lthumb 61.8393 42.6723 -0.028355
rclavicle 4.67641e-014 -7.95139e-015 0
rhumerus -10.4053 -15.7535 -15.5792
rradius 79.0232 -0 0
rwrist -21.7899 0 0
rhand -42.9738 -54.0424 5.90679
rfingers 7.12502 -0 0
rthumb -18.0795 79.8572 -7.3236
207
root 4.76124 15.0825 -25.4807 7.28081 -0.530122 5.49781
lfemur 7.0375 -7.08109 1.76797
ltibia 5.08716 -0 0
lfoot -33.9782 -13.929 -0.500457
ltoes 53.6149 -0 0
rfemur -31.12 -19.8412 -8.22314
rtibia 51.0623 -0 0
rfoot -27.423 17.2886 0.151841
rtoes 59.5946 -0 0
lowerback -2.14237 -1.80119 -0.965182
upperback -0.68135 -2.36524 -7.39702
thorax 0.217896 -1.194 -7.20072
lowerneck -11.0609 0.649966 6.36096
upperneck 3.51408 -0.190099 2.47711
head 3.09616 0.106974 -0.323384
lclavicle 4.67641e-014 -7.95139e-015 0
lhumerus -59.2514 -45.4976 115.847
lradius 54.7383 -0 0
lwrist 25.4823 0 0
lhand 38.8071 30.0002 -0.170994
lfingers 7.12502 -0 0
lthumb 61.4877 42.8039 -0.0252508
rclavicle 4.67641e-014 -7.95139e-015 0
rhumerus -9.98679 -19.8939 -15.2644
rradius 76.5552 -0 0
rwrist -21.9349 0 0
rhand -46.4377 -56.6973 4.30227
rfingers 7.12502 -0 0
rthumb -20.5234 83.6127 -4.48847
